<svg xmlns="http://www.w3.org/2000/svg" viewBox="0 0 32 32" width="32" height="32">
  <defs>
    <linearGradient id="gradient" x1="0%" y1="0%" x2="100%" y2="100%">
      <stop offset="0%" style="stop-color:#4F46E5;stop-opacity:1" />
      <stop offset="100%" style="stop-color:#7C3AED;stop-opacity:1" />
    </linearGradient>
  </defs>
  
  <!-- Fondo circular -->
  <circle cx="16" cy="16" r="15" fill="url(#gradient)"/>
  
  <!-- Carrito simplificado -->
  <g transform="translate(8, 9)">
    <!-- Base del carrito -->
    <path d="M4 3L2 1H0v1h1l1.8 3.8L2.3 7.2c-.08.14-.13.31-.13.48 0 .55.45 1 1 1h6v-1H3.21c-.07 0-.13-.06-.13-.13l.02-.06L3.55 5.5h3.73c.38 0 .71-.21.88-.52L10.85 2H2.61L2.14 1H4z" fill="white"/>
    
    <!-- Ruedas -->
    <circle cx="3" cy="10" r="1" fill="white"/>
    <circle cx="9" cy="10" r="1" fill="white"/>
  </g>
  
  <!-- Símbolo $ -->
  <circle cx="24" cy="10" r="3" fill="#10B981"/>
  <text x="24" y="12" text-anchor="middle" fill="white" font-size="4" font-weight="bold">$</text>
</svg>
