<svg xmlns="http://www.w3.org/2000/svg" viewBox="0 0 64 64" width="64" height="64">
  <defs>
    <linearGradient id="gradient" x1="0%" y1="0%" x2="100%" y2="100%">
      <stop offset="0%" style="stop-color:#4F46E5;stop-opacity:1" />
      <stop offset="100%" style="stop-color:#7C3AED;stop-opacity:1" />
    </linearGradient>
  </defs>
  
  <!-- Fondo circular -->
  <circle cx="32" cy="32" r="30" fill="url(#gradient)" stroke="#FFFFFF" stroke-width="2"/>
  
  <!-- Carrito de compras -->
  <g transform="translate(16, 18)">
    <!-- Base del carrito -->
    <path d="M8 6L4 2H0v2h2l3.6 7.59-1.35 2.45c-.16.28-.25.61-.25.96 0 1.1.9 2 2 2h12v-2H6.42c-.14 0-.25-.11-.25-.25l.03-.12L7.1 11h7.45c.75 0 1.41-.41 1.75-1.03L21.7 4H5.21l-.94-2H8z" fill="white"/>
    
    <!-- Ruedas del carrito -->
    <circle cx="6" cy="20" r="2" fill="white"/>
    <circle cx="18" cy="20" r="2" fill="white"/>
    
    <!-- Productos en el carrito -->
    <rect x="8" y="8" width="3" height="2" fill="white" rx="0.5"/>
    <rect x="12" y="8" width="3" height="2" fill="white" rx="0.5"/>
    <rect x="10" y="5" width="3" height="2" fill="white" rx="0.5"/>
  </g>
  
  <!-- Símbolo de precio/venta -->
  <circle cx="48" cy="20" r="6" fill="#10B981"/>
  <text x="48" y="24" text-anchor="middle" fill="white" font-size="8" font-weight="bold">$</text>
</svg>
